<?xml version="1.0" standalone="no"?>
<!DOCTYPE svg PUBLIC "-//W3C//DTD SVG 20010904//EN"
 "http://www.w3.org/TR/2001/REC-SVG-20010904/DTD/svg10.dtd">
<svg version="1.0" xmlns="http://www.w3.org/2000/svg"
 width="256.000000pt" height="256.000000pt" viewBox="0 0 256.000000 256.000000"
 preserveAspectRatio="xMidYMid meet">
<metadata>
Created by potrace 1.14, written by Peter Selinger 2001-2017
</metadata>
<g transform="translate(0.000000,256.000000) scale(0.100000,-0.100000)"
fill="#000000" stroke="none">
<path d="M838 2543 c-29 -33 -38 -87 -34 -189 5 -106 8 -92 -87 -414 -58 -193
-154 -427 -179 -434 -99 -26 -132 -50 -84 -62 14 -3 26 -8 26 -11 0 -2 -22
-32 -50 -66 -83 -103 -147 -239 -175 -374 -14 -68 -15 -232 -1 -292 36 -156
119 -296 251 -419 76 -71 76 -72 51 -82 -14 -5 -26 -12 -26 -14 0 -7 31 4 47
16 13 10 53 -7 53 -22 0 -6 7 -10 15 -10 8 0 24 -10 36 -22 12 -13 19 -17 14
-10 -5 10 2 9 25 -3 22 -11 30 -21 26 -32 -5 -12 -3 -13 7 -5 13 11 60 5 53
-7 -2 -3 7 -7 20 -7 13 -1 42 -11 64 -22 22 -10 37 -16 35 -11 -3 4 9 3 27 -3
18 -5 39 -10 46 -11 7 0 10 -7 7 -16 -5 -13 -4 -14 6 -4 15 15 53 18 44 4 -3
-6 11 -8 36 -5 32 4 39 2 33 -8 -6 -10 -5 -11 8 -1 8 7 17 10 20 7 7 -7 224
-7 256 0 12 3 22 0 22 -5 0 -6 7 -3 16 5 12 13 20 14 36 5 11 -6 18 -7 14 -1
-6 11 70 26 85 17 5 -4 9 -1 9 6 0 8 5 7 17 -2 9 -8 14 -9 10 -3 -8 14 20 27
35 17 7 -3 8 -1 4 5 -6 10 11 15 40 11 4 0 10 3 13 8 10 15 113 53 124 46 5
-3 7 -1 3 5 -3 6 -2 13 4 17 5 3 10 1 10 -4 0 -6 5 -11 11 -11 5 0 8 4 5 9 -9
13 21 34 36 25 7 -4 10 -4 6 1 -4 4 19 27 50 50 232 174 347 399 337 660 -4
112 -7 133 -36 225 -28 87 -77 180 -143 267 -49 65 -53 73 -35 78 11 4 18 12
16 18 -4 13 -59 34 -102 40 -32 4 -46 24 -86 123 -43 108 -61 167 -126 404
-53 196 -55 211 -57 335 -1 143 -12 179 -53 190 -37 9 -59 -7 -161 -122 -41
-46 -48 -50 -66 -40 -30 17 -333 16 -363 -1 -19 -10 -24 -9 -36 8 -22 32 -100
113 -131 138 -35 27 -58 28 -78 5z"/>
<path d="M2015 230 c-4 -6 1 -7 11 -3 10 4 15 2 11 -4 -3 -5 0 -10 8 -10 11 0
12 4 4 14 -14 15 -26 17 -34 3z"/>
<path d="M480 211 c0 -6 4 -13 10 -16 6 -3 7 1 4 9 -7 18 -14 21 -14 7z"/>
<path d="M1996 207 c3 -10 9 -15 12 -12 3 3 0 11 -7 18 -10 9 -11 8 -5 -6z"/>
<path d="M390 190 c-6 -11 -8 -20 -6 -20 3 0 10 9 16 20 6 11 8 20 6 20 -3 0
-10 -9 -16 -20z"/>
<path d="M435 200 c3 -5 8 -10 11 -10 2 0 4 5 4 10 0 6 -5 10 -11 10 -5 0 -7
-4 -4 -10z"/>
<path d="M1962 201 c-11 -6 -9 -9 6 -13 15 -4 19 -2 15 8 -6 16 -4 16 -21 5z"/>
<path d="M2070 201 c0 -6 4 -12 8 -15 5 -3 9 1 9 9 0 8 -4 15 -9 15 -4 0 -8
-4 -8 -9z"/>
<path d="M586 176 c5 -13 4 -17 -4 -12 -15 9 -26 -14 -13 -27 9 -9 10 -7 5 7
-5 13 -4 17 4 12 15 -9 26 14 13 27 -9 9 -10 7 -5 -7z"/>
<path d="M1930 185 c0 -5 5 -17 10 -25 5 -8 10 -10 10 -5 0 6 -5 17 -10 25 -5
8 -10 11 -10 5z"/>
<path d="M2036 178 c5 -7 2 -9 -9 -5 -11 4 -14 2 -10 -9 4 -11 9 -12 19 -3 12
10 11 29 -2 29 -3 0 -2 -5 2 -12z"/>
<path d="M2150 181 c0 -6 4 -12 8 -15 5 -3 9 1 9 9 0 8 -4 15 -9 15 -4 0 -8
-4 -8 -9z"/>
<path d="M349 171 c8 -5 10 -14 6 -22 -6 -11 -5 -11 5 -2 14 12 6 33 -13 33
-8 0 -7 -3 2 -9z"/>
<path d="M406 162 c-3 -5 1 -9 9 -9 8 0 15 4 15 9 0 4 -4 8 -9 8 -6 0 -12 -4
-15 -8z"/>
<path d="M505 160 c-3 -6 1 -7 9 -4 18 7 21 14 7 14 -6 0 -13 -4 -16 -10z"/>
<path d="M1984 158 c-4 -7 -4 -10 1 -6 4 4 14 0 22 -10 13 -15 13 -15 3 6 -12
25 -16 27 -26 10z"/>
<path d="M2096 158 c3 -5 8 -7 12 -4 3 3 11 -2 19 -12 13 -16 14 -16 5 2 -5
11 -17 21 -26 22 -9 1 -13 -2 -10 -8z"/>
<path d="M2200 160 c-9 -6 -10 -10 -3 -10 6 0 15 5 18 10 8 12 4 12 -15 0z"/>
<path d="M443 142 c-7 -4 -9 -13 -4 -21 6 -9 10 -7 14 8 3 12 4 21 4 21 -1 0
-7 -4 -14 -8z"/>
<path d="M606 131 c-17 -6 -17 -8 -4 -14 10 -3 19 0 22 9 3 8 4 14 3 13 -1 0
-11 -4 -21 -8z"/>
<path d="M2046 131 c-17 -6 -17 -8 -4 -14 10 -3 19 0 22 9 3 8 4 14 3 13 -1 0
-11 -4 -21 -8z"/>
<path d="M2168 133 c-21 -5 -23 -19 -5 -29 6 -4 9 -4 5 1 -4 4 0 14 10 21 18
14 17 14 -10 7z"/>
<path d="M660 119 c0 -5 5 -7 10 -4 6 3 10 8 10 11 0 2 -4 4 -10 4 -5 0 -10
-5 -10 -11z"/>
<path d="M375 110 c-3 -5 0 -7 8 -4 8 3 18 1 22 -5 3 -6 11 -11 18 -11 6 0 2
7 -9 15 -23 17 -31 18 -39 5z"/>
<path d="M559 108 c-6 -21 -5 -37 2 -32 5 3 7 9 4 14 -3 4 1 11 7 13 10 4 10
6 1 6 -7 1 -13 0 -14 -1z"/>
<path d="M1999 108 c-6 -21 -5 -37 2 -32 5 3 7 9 4 14 -3 4 1 11 7 13 10 4 10
6 1 6 -7 1 -13 0 -14 -1z"/>
<path d="M2110 98 c0 -4 4 -8 9 -8 6 0 12 4 15 8 3 5 -1 9 -9 9 -8 0 -15 -4
-15 -9z"/>
<path d="M457 89 c7 -7 15 -10 18 -7 3 3 -2 9 -12 12 -14 6 -15 5 -6 -5z"/>
<path d="M627 84 c-4 -4 -7 -12 -7 -18 0 -6 5 -4 10 4 9 13 11 13 21 0 9 -12
10 -12 7 -1 -5 17 -21 25 -31 15z"/>
<path d="M766 78 c3 -4 9 -8 15 -8 5 0 9 4 9 8 0 5 -7 9 -15 9 -8 0 -12 -4 -9
-9z"/>
<path d="M1746 78 c3 -5 10 -6 15 -3 13 9 11 12 -6 12 -8 0 -12 -4 -9 -9z"/>
<path d="M1895 79 c-6 -8 -4 -10 5 -4 10 6 12 4 6 -11 -6 -15 -5 -17 5 -6 9 9
10 15 2 23 -8 8 -13 7 -18 -2z"/>
<path d="M1930 80 c0 -5 5 -10 10 -10 6 0 10 5 10 10 0 6 -4 10 -10 10 -5 0
-10 -4 -10 -10z"/>
<path d="M575 60 c3 -5 8 -10 11 -10 2 0 4 5 4 10 0 6 -5 10 -11 10 -5 0 -7
-4 -4 -10z"/>
<path d="M836 53 c-6 -14 -5 -15 5 -6 7 7 10 15 7 18 -3 3 -9 -2 -12 -12z"/>
<path d="M1723 62 c-7 -4 -9 -13 -4 -21 6 -9 10 -7 14 8 3 12 4 21 4 21 -1 0
-7 -4 -14 -8z"/>
<path d="M864 48 c3 -15 26 -23 26 -8 0 6 -4 9 -9 6 -5 -4 -12 -1 -14 4 -3 6
-4 5 -3 -2z"/>
<path d="M1858 48 c5 -5 16 -8 23 -6 8 3 3 7 -10 11 -17 4 -21 3 -13 -5z"/>
<path d="M695 40 c3 -5 8 -10 11 -10 2 0 4 5 4 10 0 6 -5 10 -11 10 -5 0 -7
-4 -4 -10z"/>
<path d="M1775 40 c3 -5 8 -10 11 -10 2 0 4 5 4 10 0 6 -5 10 -11 10 -5 0 -7
-4 -4 -10z"/>
<path d="M918 23 c7 -3 16 -2 19 1 4 3 -2 6 -13 5 -11 0 -14 -3 -6 -6z"/>
<path d="M955 20 c3 -5 8 -10 11 -10 2 0 4 5 4 10 0 6 -5 10 -11 10 -5 0 -7
-4 -4 -10z"/>
<path d="M1540 26 c0 -2 7 -7 16 -10 8 -3 12 -2 9 4 -6 10 -25 14 -25 6z"/>
</g>
</svg>
